<?xml version="1.0" encoding="utf-8"?>
<!-- Generator: Adobe Illustrator 21.1.0, SVG Export Plug-In . SVG Version: 6.00 Build 0)  -->
<svg version="1.1" id="Layer_1" xmlns="http://www.w3.org/2000/svg" xmlns:xlink="http://www.w3.org/1999/xlink" x="0px" y="0px"
	 viewBox="0 0 5242.9 5242.6" style="enable-background:new 0 0 5242.9 5242.6;" xml:space="preserve">
<style type="text/css">
	.st0{fill:#FFFFFF;}
	.st1{fill:#F0F0F0;}
</style>
<g>
	<path class="st0" d="M3424.5,1467.4c3.2,4.5,5.5,8.4,8.4,11.8c42.1,48.1,90.5,88.3,147,118.7c77.9,42,161.8,60.1,249.5,63.4
		c38,1.4,75.9-1.4,113.6-7c64.7-9.5,125.6-30,181.4-64.3c94.4-58.1,161.8-139.7,205.8-240.8c35.1-80.5,50.1-165.4,52.5-252.8
		c1-36,0.6-71.9-2.9-107.9c-3.2-33.2-7.5-66.2-14.5-98.8c-30-140.7-96.9-261.4-198.2-363.3c-79.7-80.3-172.1-142.8-273.2-192.8
		c-154.7-76.5-319.6-117-490-137.4c-35-4.2-70.3-7-105.5-9.2c-46.6-2.8-93.2-5.5-139.8-6.2c-84.7-1.2-169.2,2.6-253.6,10.3
		c-52.4,4.8-104.6,11.4-156.5,19.8c-88.2,14.3-175.1,34.4-260.4,60.9c-154.2,48-299.9,114.1-434.6,203.6
		c-122.7,81.6-229.4,180.2-316.4,299.5c-121.7,166.9-182.1,353.9-183.7,560.1c-0.3,40.7,2.6,81.2,6.6,121.7
		c5,51.2,14.1,101.5,26.8,151.3c31.9,125.3,86.1,240.5,159,347c39.5,57.8,81.3,113.9,124.6,168.9c126.7,161,263.6,313,405.4,460.8
		c114.5,119.3,228.1,239.3,336.2,364.6c81.9,94.9,161,192.1,234,294.1c35.7,49.9,69.1,101.3,97.6,155.7
		c70.7,135.1,108.8,278.7,111.7,431.3c1.1,57.4-3.5,114.4-13.9,171c-16.8,91.5-48.4,177.3-98.7,255.6
		c-96.8,150.6-229.7,257.6-396.4,322.5c-94,36.6-192.1,54.5-292.4,59.5c-80.7,4-161.2,0.9-240.8-15.1
		c-75-15.1-146.4-39.9-212.4-79.2c-84.6-50.5-153.5-116.8-203.3-202.3c-45.5-78.2-68.3-163.2-73.9-252.8
		c-4.1-64.6-1.9-129.1,11.2-193c17-82.9,49.2-158.8,100.2-226.5c55.4-73.7,125.3-130.5,205.7-174.7c120.9-66.5,252-95.6,388.3-105.4
		c27.2-1.9,54.6-2.5,81.9-3.8c3.7-0.2,7.4-1.5,11.8-2.5c-0.4-4.3-0.3-7.6-1.1-10.7c-21.4-85.9-61.7-161.4-124.9-224.1
		c-48.4-48-104.6-84.4-166.4-112.5c-93.1-42.2-191.6-59.8-292.9-63.9c-62.7-2.5-125.2,1.4-187.3,10.7
		c-80.9,12-158.9,33.8-233.5,67.3c-204.8,91.8-360.1,237.3-467.6,434c-75.6,138.2-112.7,287-119.2,443.7
		c-2.8,67.4,0.9,134.5,10.6,201.3c8.2,56.2,20.7,111.3,38.7,165.1C831,4451.2,920.2,4583.6,1040,4696
		c85.7,80.4,182.6,144.8,287.5,197.3c191,95.8,394.5,148.2,606,172.1c37.7,4.3,75.6,7.2,113.5,9.3c51.2,2.8,102.5,5.9,153.8,5.9
		c96.6,0.1,193.2-3.1,289.4-14.1c37.7-4.3,75.5-7.9,113.1-13.5c79.7-11.8,158.8-27.4,236.9-47.4c196.7-50.4,383.3-125.5,558.1-229.3
		c140.2-83.2,266.8-183.4,376.4-304.4c91.9-101.4,169.1-212.6,226.6-337.2c61.3-132.8,96.2-272.4,104.7-418.1
		c6.2-106,1.2-211.7-18-316.6c-16.8-91.5-42.3-180.2-78.9-265.6c-41.9-97.6-93-190.2-149.9-279.8
		c-65.6-103.3-142.3-197.9-224.9-288.1c-111.3-121.4-226.6-238.9-344.6-353.9c-132.7-129.4-262.4-261.7-385.7-400.2
		c-60.3-67.7-118.6-137.2-172.9-209.8c-42.5-56.8-78.5-117.3-106.3-182.7c-30.7-72.3-49.9-147.6-56.8-225.7
		c-3.3-37.8-4.3-75.7-1.9-113.8c3-47.4,8.8-94.2,21.1-140c46.9-175.1,151.5-304.7,311-389.6c83.1-44.3,173.4-63.9,266.9-68.5
		c61.4-3.1,122.6-0.5,183.1,11.5c60,11.9,117,31.6,168.9,64.3c81.9,51.6,139.9,122.4,170.5,214.7c14.1,42.6,20.9,86.5,22.5,131.5
		c1.9,54.9-1.9,109.4-14.9,162.7c-39.2,160.7-122.6,292.4-257.7,389.9C3433.1,1460,3429.3,1463.5,3424.5,1467.4z M2995.5,30.8
		C2948,15.9,2753-0.5,2619.7,0c-252.8,1-500.7,35.8-743.2,107.6c-236.6,70.1-458.9,171.7-666.6,304.8
		C997.4,548.5,808.4,711.8,642.8,902.2c-162,186.2-295.2,391.2-399.3,615C105.7,1813.6,26.7,2125.1,5.6,2451
		c-19.6,303.3,11.8,601.6,95.7,893.9c85.9,299.6,221.5,574.9,405.9,826.2c62.2,84.8,109.4,142.4,125.5,152.9
		c-0.9-4.2-1.6-7.3-2.3-10.5c-10.9-46.7-22.3-93.3-32.5-140.1c-14.1-64.7-18.5-130.6-19.2-196.6c-0.5-43.9,2.4-87.8,7.4-131.6
		c4.3-37.8,10.6-75.2,19-112.2c7-30.5,14.2-61,21.9-91.3c2.6-10.2,2.2-19.5-2.9-28.9c-5.5-9.9-10.1-20.3-15-30.5
		c-123.9-259.2-194.2-532.4-212.7-818.9c-5.2-79.8-6.2-159.8-2.2-239.8c4.1-82.6,11.9-164.8,24.3-246.5
		c15.9-104.2,39.4-206.7,70.2-307.5c169-553.5,551.9-1024.3,1059.5-1302.5c40.3-22.1,81.7-42.1,122.7-62.8
		c9.6-4.8,18.6-9.9,25.7-18.5c41.7-50.6,89.6-95,140-136.6c29.2-24.2,60.1-46.5,90.7-69c69.9-51.4,144-96.3,221.7-135
		c44.7-22.3,90.4-42.5,136.8-61.1c66.9-26.7,135-49.9,204.6-68.3c79.8-21.1,160-41.3,241.6-54.6c31.6-5.1,63.1-10.8,94.8-14.8
		c47.6-6,95.2-11.7,143.2-13.3C2978.5,32.9,2987,31.6,2995.5,30.8z M4490.5,789.7c5.4,22.6,10.8,45.2,16.2,67.8
		c9.7,40.9,17.5,82.1,21.7,123.9c3.3,32.6,3.8,65.2,3.8,97.8c0,45.5-4.6,90.6-13.7,135c-10.6,51.5-21.5,103.1-39.1,152.9
		c-3.8,10.7-2.1,18.4,3.7,27.8c27.9,44.6,56.4,89,82.2,134.8c169.1,300,262.1,622.5,282.1,966c5.4,93.2,4.7,186.5-2,279.8
		c-4.4,61.2-11,122.1-20,182.8c-15.2,102.3-37.6,203-67.5,302c-120.4,398.1-335.5,736.4-643,1016c-21.9,19.9-41.3,40.8-56.3,66.6
		c-28.8,49.6-63.3,95.5-97.4,141.6c-27,36.5-56.2,71.2-86.8,104.5c-65.1,70.8-136.7,134.5-213.8,192.2
		c-80.1,60-163,115.7-251.1,163.5c-52.1,28.3-105.3,54.6-159.7,78.4c-85,37.1-171.9,68.7-260.8,95.2c-82.4,24.6-166.1,44.1-250.2,62
		c-46.9,10-94.2,18-141.7,24.8c-46.2,6.6-92.5,12.3-139,16.2c-28.9,2.4-57.9,4.8-88.5,7.3c105.6,16.3,372.5,26,639.1-14.2
		c272.9-41.1,533.2-122.3,780.2-245.6c264.9-132.1,500.7-304.3,707.5-516c203.5-208.3,368.6-443.6,493-706.9
		C5487.7,2692.6,5214.4,1506,4490.5,789.7z"/>
	<g>
		<path class="st0" d="M2603.2,5051.1c79.7-11.8,158.8-27.4,236.9-47.4c196.7-50.4,383.3-125.5,558.1-229.3
			c140.2-83.2,266.8-183.4,376.4-304.4c91.9-101.4,169.1-212.6,226.6-337.2c61.3-132.8,96.2-272.4,104.7-418.1
			c6.2-106,1.2-211.7-18-316.6c-16.8-91.5-42.3-180.2-78.9-265.6c-41.9-97.6-93-190.2-149.9-279.8
			c-65.6-103.3-142.3-197.9-224.9-288.1c-111.3-121.4-226.6-238.9-344.6-353.9c-132.7-129.4-262.4-261.7-385.7-400.2
			c-60.3-67.7-118.6-137.2-172.9-209.8c-42.5-56.8-78.5-117.3-106.3-182.7c-30.7-72.3-49.9-147.6-56.8-225.7
			c-3.3-37.8-4.3-75.7-1.9-113.8c3-47.4,8.8-94.2,21.1-140c46.9-175.1,151.5-304.7,311-389.6c83.1-44.3,173.4-63.9,266.9-68.5
			c61.4-3.1,122.6-0.5,183.1,11.5c60,11.9,117,31.6,168.9,64.3c81.9,51.6,139.9,122.4,170.5,214.7c14.1,42.6,20.9,86.5,22.5,131.5
			c1.9,54.9-1.9,109.4-14.9,162.7c-39.2,160.7-122.6,292.4-257.7,389.9c-4.2,3-8.1,6.5-12.9,10.4c3.2,4.5,5.5,8.4,8.4,11.8
			c42.1,48.1,90.5,88.3,147,118.7c77.9,42,161.8,60.1,249.5,63.4c38,1.4,75.9-1.4,113.6-7c64.7-9.5,125.6-30,181.4-64.3
			c94.4-58.1,161.8-139.7,205.8-240.8c35.1-80.5,50.1-165.4,52.5-252.8c1-36,0.6-71.9-2.9-107.9c-3.2-33.2-7.5-66.2-14.5-98.8
			c-30-140.7-96.9-261.4-198.2-363.3c-79.7-80.3-172.1-142.8-273.2-192.8c-154.7-76.5-319.6-117-490-137.4c-35-4.2-70.3-7-105.5-9.2
			c-46.6-2.8-93.2-5.5-139.8-6.2c-84.7-1.2-169.2,2.6-253.6,10.3c-52.4,4.8-104.6,11.4-156.5,19.8c-88.2,14.3-175.1,34.4-260.4,60.9
			c-154.2,48-299.9,114.1-434.6,203.6c-122.7,81.6-229.4,180.2-316.4,299.5c-121.7,166.9-182.1,353.9-183.7,560.1
			c-0.3,40.7,2.6,81.2,6.6,121.7c5,51.2,14.1,101.5,26.8,151.3c31.9,125.3,86.1,240.5,159,347c39.5,57.8,81.3,113.9,124.6,168.9
			c126.7,161,263.6,313,405.4,460.8c114.5,119.3,228.1,239.3,336.2,364.6c81.9,94.9,161,192.1,234,294.1
			c35.7,49.9,69.1,101.3,97.6,155.7c70.7,135.1,108.8,278.7,111.7,431.3c1.1,57.4-3.5,114.4-13.9,171
			c-16.8,91.5-48.4,177.3-98.7,255.6c-96.8,150.6-229.7,257.6-396.4,322.5c-94,36.6-192.1,54.5-292.4,59.5
			c-80.7,4-161.2,0.9-240.8-15.1c-75-15.1-146.4-39.9-212.4-79.2c-84.6-50.5-153.5-116.8-203.3-202.3
			c-45.5-78.2-68.3-163.2-73.9-252.8c-4.1-64.6-1.9-129.1,11.2-193c17-82.9,49.2-158.8,100.2-226.5
			c55.4-73.7,125.3-130.5,205.7-174.7c120.9-66.5,252-95.6,388.3-105.4c27.2-1.9,54.6-2.5,81.9-3.8c3.7-0.2,7.4-1.5,11.8-2.5
			c-0.4-4.3-0.3-7.6-1.1-10.7c-21.4-85.9-61.7-161.4-124.9-224.1c-48.4-48-104.6-84.4-166.4-112.5c-93.1-42.2-191.6-59.8-292.9-63.9
			c-62.7-2.5-125.2,1.4-187.3,10.7c-80.9,12-158.9,33.8-233.5,67.3c-204.8,91.8-360.1,237.3-467.6,434
			c-75.6,138.2-112.7,287-119.2,443.7c-2.8,67.4,0.9,134.5,10.6,201.3c8.2,56.2,20.7,111.3,38.7,165.1
			C831,4449.2,920.2,4581.6,1040,4694c85.7,80.4,182.6,144.8,287.5,197.3c191,95.8,394.5,148.2,606,172.1
			c37.7,4.3,75.6,7.2,113.5,9.3c51.2,2.8,102.5,5.9,153.8,5.9c96.6,0.1,193.2-3.1,289.4-14.1
			C2527.8,5060.3,2565.7,5056.7,2603.2,5051.1z"/>
		<path class="st1" d="M597.9,4173.5c-14.1-64.7-18.5-130.6-19.2-196.6c-0.5-43.9,2.4-87.8,7.4-131.6c4.3-37.8,10.6-75.2,19-112.2
			c7-30.5,14.2-61,21.9-91.3c2.6-10.2,2.2-19.5-2.9-28.9c-5.5-9.9-10.1-20.3-15-30.5c-123.9-259.2-194.2-532.4-212.7-818.9
			c-5.2-79.8-6.2-159.8-2.2-239.8c4.1-82.6,11.9-164.8,24.3-246.5c15.9-104.2,39.4-206.7,70.2-307.5
			c169-553.5,551.9-1024.3,1059.5-1302.5c40.3-22.1,81.7-42.1,122.7-62.8c9.6-4.8,18.6-9.9,25.7-18.5c41.7-50.6,89.6-95,140-136.6
			c29.2-24.2,60.1-46.5,90.7-69c69.9-51.4,144-96.3,221.7-135c44.7-22.3,90.4-42.5,136.8-61.1c66.9-26.7,135-49.9,204.6-68.3
			c79.8-21.1,160-41.3,241.6-54.6c31.6-5.1,63.1-10.8,94.8-14.8c47.6-6,95.2-11.7,143.2-13.3c8.6-0.3,17.1-1.5,25.6-2.3
			C2948,15.9,2753-0.5,2619.7,0c-252.8,1-500.7,35.8-743.2,107.6c-236.6,70.1-458.9,171.7-666.6,304.8
			C997.4,548.5,808.4,711.8,642.8,902.2c-162,186.2-295.2,391.2-399.3,615C105.7,1813.6,26.7,2125.1,5.6,2451
			c-19.6,303.3,11.8,601.6,95.7,893.9c85.9,299.6,221.5,574.9,405.9,826.2c62.2,84.8,109.4,142.4,125.5,152.9
			c-0.9-4.2-1.6-7.3-2.3-10.5C619.5,4266.9,608.1,4220.3,597.9,4173.5z"/>
		<path class="st1" d="M4490.5,789.7c5.4,22.6,10.8,45.2,16.2,67.8c9.7,40.9,17.5,82.1,21.7,123.9c3.3,32.6,3.8,65.2,3.8,97.8
			c0,45.5-4.6,90.6-13.7,135c-10.6,51.5-21.5,103.1-39.1,152.9c-3.8,10.7-2.1,18.4,3.7,27.8c27.9,44.6,56.4,89,82.2,134.8
			c169.1,300,262.1,622.5,282.1,966c5.4,93.2,4.7,186.5-2,279.8c-4.4,61.2-11,122.1-20,182.8c-15.2,102.3-37.6,203-67.5,302
			c-120.4,398.1-335.5,736.4-643,1016c-21.9,19.9-41.3,40.8-56.3,66.6c-28.8,49.6-63.3,95.5-97.4,141.6
			c-27,36.5-56.2,71.2-86.8,104.5c-65.1,70.8-136.7,134.5-213.8,192.2c-80.1,60-163,115.7-251.1,163.5
			c-52.1,28.3-105.3,54.6-159.7,78.4c-85,37.1-171.9,68.7-260.8,95.2c-82.4,24.6-166.1,44.1-250.2,62c-46.9,10-94.2,18-141.7,24.8
			c-46.2,6.6-92.5,12.3-139,16.2c-28.9,2.4-57.9,4.8-88.5,7.3c105.6,16.3,372.5,26,639.1-14.2c272.9-41.1,533.2-122.3,780.2-245.6
			c264.9-132.1,500.7-304.3,707.5-516c203.5-208.3,368.6-443.6,493-706.9C5487.7,2692.6,5214.4,1506,4490.5,789.7z"/>
	</g>
</g>
</svg>
